<svg xmlns="http://www.w3.org/2000/svg" viewBox="0 0 500 274" width="500" height="274">
  <g data-v-2cb57da0="" fill="#00aeef" class="icon-text-wrapper icon-svg-group iconsvg" transform="matrix(2.848283, 0, 0, 2.55773, 6.341785, 14.795015)" style="">
    <g class="iconsvg-imagesvg" transform="translate(64.7540454864502,0)">
      <g>
        <rect fill="#00aeef" fill-opacity="0" stroke-width="2" x="0" y="0" width="41.30190796857464" height="44.968162235646936" class="image-rect"/>
        <svg filter="url(#colors8081037687)" x="0" y="0" width="41.30190796857464" height="44.968162235646936" filtersec="colorsf5592156447" class="image-svg-svg primary" style="overflow: visible;">
          <svg xmlns="http://www.w3.org/2000/svg" version="1.1" x="0px" y="0px" viewBox="-248.04444885253906 349.89068603515625 86.34446716308594 94.0093994140625">
            <path d="M-217.1,378.8c-1-0.9-2.6-0.9-3.5,0.1l-15.5,16.4c-0.9,1-0.9,2.5,0,3.4l15.5,16.4c0.5,0.5,1.2,0.8,1.8,0.8  c0.6,0,1.2-0.2,1.7-0.7c1-0.9,1-2.5,0.1-3.5l-13.8-14.7l13.8-14.7C-216,381.3-216.1,379.7-217.1,378.8z M-189.4,378.9  c-0.9-1-2.5-1-3.5-0.1c-1,0.9-1,2.5-0.1,3.5l13.8,14.7l-13.8,14.7c-0.9,1-0.9,2.6,0.1,3.5c0.5,0.5,1.1,0.7,1.7,0.7  c0.7,0,1.3-0.3,1.8-0.8l15.5-16.4c0.9-1,0.9-2.5,0-3.4L-189.4,378.9z M-200.5,378.4c-1.3-0.3-2.7,0.5-3,1.8l-7.8,32.3  c-0.3,1.3,0.5,2.7,1.8,3c0.2,0,0.4,0.1,0.6,0.1c1.1,0,2.2-0.8,2.4-1.9l7.8-32.3C-198.3,380.1-199.2,378.7-200.5,378.4z   M-162.5,377.5c-1.6-4.9-4.3-8.4-8.2-10.6c-4.2-2.5-8.4-4.9-12.6-7.3c-4.2-2.4-8.4-4.8-12.6-7.3c-2.7-1.5-5.4-2.3-8.4-2.4  c-3.6-0.1-6.7,0.6-9.4,2.2c-2.4,1.4-4.8,2.7-7.1,4.1c-6,3.4-12.2,7-18.3,10.6c-5.8,3.5-8.9,8.9-8.9,15.5c-0.1,6.5,0,13.1,0,19.5  c0,3.2,0,6.5,0,9.7c0,1.9,0.3,3.7,0.8,5.2c1.6,4.6,4.3,8.1,8.1,10.3c4.1,2.4,8.3,4.8,12.5,7.2c4.2,2.4,8.4,4.8,12.5,7.2  c2.5,1.5,5.1,2.3,8.1,2.5c0.5,0,1,0,1.4,0c3.2,0,6.1-0.8,8.7-2.3c8.2-4.8,16.7-9.8,25.1-14.6c2.7-1.5,4.9-3.6,6.5-6.4  c1.8-3.1,2.6-5.7,2.6-8.5v-29.9C-161.8,380.8-162,379.1-162.5,377.5z M-166.8,412.3c0,1.8-0.6,3.7-2,6c-1.1,2-2.6,3.5-4.6,4.6  c-8.5,4.8-17,9.8-25.2,14.6c-2.1,1.2-4.4,1.7-7.2,1.6c-2.2-0.2-4.1-0.8-5.9-1.9c-4.2-2.4-8.3-4.8-12.5-7.2  c-4.2-2.4-8.3-4.8-12.5-7.2c-2.8-1.6-4.7-4-5.9-7.6c-0.4-1-0.6-2.2-0.6-3.6c0-3.2,0-6.5,0-9.7c0-6.4,0-13,0-19.5  c0-5,2.1-8.6,6.5-11.3c6-3.6,12.2-7.1,18.2-10.6c2.4-1.4,4.8-2.7,7.2-4.1c1.8-1.1,3.7-1.6,6.1-1.6c0.2,0,0.4,0,0.6,0  c2.2,0.1,4.2,0.7,6.1,1.8c4.2,2.5,8.4,4.9,12.6,7.3c4.2,2.4,8.4,4.8,12.6,7.3c2.8,1.6,4.7,4.1,5.9,7.8c0.3,1,0.5,2.2,0.5,3.4V412.3z  "/>
          </svg>
        </svg>
        <defs>
          <filter id="colors8081037687">
            <feColorMatrix type="matrix" values="0 0 0 0 0  0 0 0 0 0.6796875  0 0 0 0 0.93359375  0 0 0 1 0" class="icon-fecolormatrix"/>
          </filter>
        </defs>
      </g>
    </g>
    <g transform="translate(0,51.968162536621094)">
      <g data-gra="path-name" fill-rule="" class="tp-name iconsvg-namesvg">
        <g transform="scale(1)">
          <g>
            <path d="M2.86 0L8.36 0 8.36-19.99 8.57-19.99 22.72 0 28.27 0 28.27-29.4 22.85-29.4 22.85-9.16 22.64-9.16 8.44-29.4 2.86-29.4ZM49.06-29.4L41.87-29.4 31.33 0 37.46 0 45.28-23.31 45.7-23.31 54.05 0 60.61 0ZM71.95-12.68L84.42-12.68 84.42 0 90.09 0 90.09-29.4 84.42-29.4 84.42-18.06 71.95-18.06ZM63.67 0L69.34 0 69.34-29.4 63.67-29.4ZM114.37-10.63L120.12-10.63 120.12-29.4 114.37-29.4ZM107.81 0.42C107.81 0.42 107.86-4.24 107.86-5.12 103.82-5.12 101.05-7.27 101.05-11.47L101.05-29.4 95.47-29.4 95.47-10.63C95.47-3.11 101.01 0.42 107.81 0.42ZM146.92-23.9L146.92-29.4 125.16-29.4 125.16-23.9ZM146.92-12.1L146.92-17.3 125.16-17.3 125.16-12.1ZM125.16 0L146.92 0 146.92-5.54 125.16-5.54ZM158-8.78L158-29.4 152.29-29.4 152.29-8.78ZM152.29 0L173.67 0 173.67-5.54 152.29-5.54Z" transform="translate(-2.8600001335144043, 29.399999618530273)"/>
          </g>
        </g>
      </g>
    </g>
  </g>
</svg>